<?xml version="1.0" encoding="utf-8"?>
<!-- Generator: Adobe Illustrator 17.1.0, SVG Export Plug-In . SVG Version: 6.00 Build 0)  -->
<!DOCTYPE svg PUBLIC "-//W3C//DTD SVG 1.1//EN" "http://www.w3.org/Graphics/SVG/1.1/DTD/svg11.dtd">
<svg version="1.1" id="Layer_1" xmlns="http://www.w3.org/2000/svg" xmlns:xlink="http://www.w3.org/1999/xlink" x="0px" y="0px"
	 viewBox="0 0 44.1 20" enable-background="new 0 0 44.1 20" xml:space="preserve">
<path fill="#E91D25" d="M28.6,12.3c-1.1,1.1-2.3,1.9-3.6,2.4c-1.3,0.5-2.5,0.8-3.8,0.8c-1.3,0-2.5-0.2-3.7-0.7
	c-1.2-0.5-2.2-1.1-3.1-2L2.7,1L0,3.7L12.4,16c1.3,1.3,2.7,2.2,4.3,2.9c1.6,0.7,3.3,1,5,1c1.7,0,3.5-0.3,5.2-1
	c1.7-0.7,3.3-1.8,4.8-3.3L41.5,6l0,0l2.7-2.7L40.9,0l-2.7,2.7l0.1,0.1L28.6,12.3z"/>
</svg>
