<?xml version="1.0" encoding="utf-8"?>
<!-- Generator: Adobe Illustrator 17.1.0, SVG Export Plug-In . SVG Version: 6.00 Build 0)  -->
<!DOCTYPE svg PUBLIC "-//W3C//DTD SVG 1.1//EN" "http://www.w3.org/Graphics/SVG/1.1/DTD/svg11.dtd">
<svg version="1.1" id="Layer_1" xmlns="http://www.w3.org/2000/svg" xmlns:xlink="http://www.w3.org/1999/xlink" x="0px" y="0px"
	 viewBox="0 0 12.5 27.6" enable-background="new 0 0 12.5 27.6" xml:space="preserve">
<path fill="#E91D25" d="M7.7,9.7c0.7,0.7,1.2,1.4,1.5,2.2c0.3,0.8,0.5,1.6,0.5,2.4c0,0.8-0.1,1.6-0.4,2.3C9,17.3,8.6,18,8,18.5
	l-7.4,7.4l1.7,1.7l7.7-7.7c0.8-0.8,1.4-1.7,1.8-2.7c0.4-1,0.6-2.1,0.7-3.1c0-1.1-0.2-2.2-0.6-3.3c-0.4-1.1-1.1-2.1-2.1-3L3.7,1.6
	l0,0L2,0L0,2l1.7,1.7l0.1-0.1L7.7,9.7z"/>
</svg>
