<?xml version="1.0" encoding="utf-8"?>
<!-- Generator: Adobe Illustrator 17.1.0, SVG Export Plug-In . SVG Version: 6.00 Build 0)  -->
<!DOCTYPE svg PUBLIC "-//W3C//DTD SVG 1.1//EN" "http://www.w3.org/Graphics/SVG/1.1/DTD/svg11.dtd">
<svg version="1.1" id="B-symbol" xmlns="http://www.w3.org/2000/svg" xmlns:xlink="http://www.w3.org/1999/xlink" x="0px" y="0px"
	 viewBox="0 0 67 78.5" enable-background="new 0 0 67 78.5" xml:space="preserve">
<path id="b-logo" fill="#ED1D24" d="M25.9,23.1h18.8c3,0,5.8,0.6,8.5,1.7c2.7,1.1,4.9,2.9,7.1,4.8c2.2,2,3.9,4.3,4.9,7.6
	c0.9,3,1.8,6.2,1.8,9.9v7.5c0,3.5-0.7,6.8-2.1,9.7c-1.4,2.9-3.2,5.5-5.4,7.6c-2.2,2.1-4.7,3.7-7.5,4.9c-2.8,1.2-5.6,1.8-8.4,1.8
	H23.2c-3,0-5.9-0.6-8.6-1.8c-2.8-1.2-5.3-2.8-7.4-4.9c-2.2-2.1-3.9-4.6-5.2-7.6C0.6,61.4,0,58.1,0,54.6V0h8v23.1v6.7v23.9
	c0,2.7,0.5,5.1,1.5,7.3c1,2.2,2.3,4.1,3.9,5.8c1.6,1.6,3.4,2.9,5.5,3.8c2.1,0.9,4.2,1.3,6.4,1.3h16.7c2.2,0,4.3-0.4,6.4-1.3
	c2.1-0.9,3.9-2.1,5.5-3.8c1.6-1.6,2.8-3.5,3.8-5.8c1-2.2,1.5-4.7,1.5-7.3v-6.1c0-5.3-1.5-9.5-4.4-12.9c-2.9-3.3-7.2-5-12.8-5
	c0,0-13.7,0-15.9,0L25.9,23.1z"/>
</svg>
