<?xml version="1.0" encoding="utf-8"?>
<!-- Generator: Adobe Illustrator 17.1.0, SVG Export Plug-In . SVG Version: 6.00 Build 0)  -->
<!DOCTYPE svg PUBLIC "-//W3C//DTD SVG 1.1//EN" "http://www.w3.org/Graphics/SVG/1.1/DTD/svg11.dtd">
<svg version="1.1" id="Layer_1" xmlns="http://www.w3.org/2000/svg" xmlns:xlink="http://www.w3.org/1999/xlink" x="0px" y="0px"
	 viewBox="0 0 276.2 55" enable-background="new 0 0 276.2 55" xml:space="preserve">
<path fill="#FFFFFF" d="M17.4,16.4h12.6c2,0,3.9,0.4,5.7,1.1c1.8,0.8,3.4,1.8,4.8,3.2c1.4,1.4,2.5,3.1,3.3,5.1
	c0.8,2,1.2,4.2,1.2,6.6v5c0,2.4-0.5,4.6-1.4,6.5c-0.9,2-2.1,3.7-3.6,5.1c-1.5,1.4-3.2,2.5-5,3.3c-1.9,0.8-3.7,1.2-5.6,1.2H15.5
	c-2,0-3.9-0.4-5.8-1.2c-1.9-0.8-3.5-1.9-5-3.3c-1.5-1.4-2.6-3.1-3.5-5.1C0.4,42,0,39.8,0,37.4V0.9h5.3v15.5v4.5v16
	c0,1.8,0.3,3.4,1,4.9c0.6,1.5,1.5,2.8,2.6,3.9c1.1,1.1,2.3,1.9,3.7,2.5c1.4,0.6,2.8,0.9,4.3,0.9H28c1.5,0,2.9-0.3,4.3-0.9
	c1.4-0.6,2.6-1.4,3.7-2.5c1.1-1.1,1.9-2.4,2.6-3.9c0.6-1.5,1-3.1,1-4.9v-4.1c0-3.5-1-6.4-3-8.6c-2-2.2-4.8-3.3-8.6-3.3
	c0,0-9.2,0-10.7,0L17.4,16.4z"/>
<path fill="#FFFFFF" d="M110.7,30v-1.3c0-2.3-0.8-4.2-2.3-5.7c-1.5-1.4-3.6-2.2-6.2-2.2H81.1v-4.5h22c3.9,0,7.1,1.1,9.4,3.3
	c2.3,2.2,3.5,5.2,3.5,9v12.1c0,1.7-0.3,3.3-0.8,4.8c-0.5,1.5-1.3,2.9-2.4,4.1c-1.1,1.2-2.5,2.1-4.2,2.8c-1.7,0.7-3.7,1.1-6,1.1H82.7
	c-1.4,0-2.8-0.3-4.1-0.9c-1.3-0.6-2.5-1.4-3.5-2.4c-1-1.1-1.8-2.3-2.5-3.7c-0.6-1.4-0.9-3-0.9-4.7c0-1.8,0.3-3.5,1-4.9
	c0.6-1.5,1.5-2.7,2.6-3.7c1.1-1,2.2-1.8,3.6-2.3c1.3-0.5,2.6-0.8,3.9-0.8l19.1,0.1l-0.1,4L83.9,34c-0.9,0-1.7,0.2-2.6,0.5
	c-0.8,0.4-1.6,0.9-2.3,1.5c-0.7,0.6-1.2,1.4-1.6,2.4c-0.4,0.9-0.6,1.9-0.6,3.1c0,1.1,0.2,2.2,0.6,3.1c0.4,0.9,0.9,1.7,1.6,2.4
	c0.7,0.6,1.4,1.1,2.3,1.5c0.8,0.4,1.7,0.5,2.6,0.5h18.2c1.6,0,2.9-0.2,4-0.7c1.1-0.5,2-1.1,2.7-1.9c0.7-0.8,1.2-1.7,1.5-2.6
	c0.3-1,0.4-1.9,0.4-2.9V34"/>
<path fill="#FFFFFF" d="M150.2,33.1c0-1.8,0.3-3.5,0.9-5c0.6-1.5,1.5-2.8,2.5-3.9c1.1-1.1,2.3-1.9,3.6-2.5c1.4-0.6,2.8-0.9,4.3-0.9
	h15.1v-4.5h-16c-2.1,0-4.1,0.4-6,1.2c-1.9,0.8-3.6,1.9-5.1,3.3c-1.5,1.4-2.6,3.2-3.5,5.2c-0.9,2-1.3,4.3-1.3,6.8V49h0.1v4.5h5.4V49
	h-0.1L150.2,33.1z"/>
<path fill="#FFFFFF" d="M206.4,53.8V16.4H201v37.5 M207.7,3c0-0.9-0.3-1.6-0.9-2.2c-0.6-0.5-1.2-0.8-1.9-0.8h-1.9
	c-0.7,0-1.4,0.3-2,0.8C200.3,1.4,200,2.1,200,3v1.1c0,0.8,0.3,1.5,0.9,2.1c0.6,0.6,1.3,0.9,2,0.9h1.9c0.7,0,1.4-0.3,1.9-0.9
	c0.6-0.6,0.9-1.3,0.9-2.1V3z"/>
<path fill="#FFFFFF" d="M260.6,17.9c1.9,0,3.8,0.4,5.6,1.1c1.9,0.8,3.5,1.8,5,3.2c1.5,1.4,2.7,3.1,3.6,5.1c0.9,2,1.4,4.1,1.4,6.5
	v5.1c0,2.4-0.5,4.6-1.4,6.5c-0.9,2-2.1,3.7-3.6,5.1c-1.5,1.4-3.1,2.5-5,3.3c-1.9,0.8-3.7,1.2-5.6,1.2h-13.4c-1.9,0-3.8-0.4-5.6-1.2
	c-1.9-0.8-3.5-1.9-5-3.3c-1.5-1.4-2.6-3.1-3.6-5c-0.9-1.9-1.4-4.1-1.4-6.5v-5.2c0-2.4,0.5-4.6,1.4-6.5c0.9-2,2.2-3.7,3.7-5.1
	c1.5-1.4,3.2-2.5,5.1-3.2c1.9-0.8,4.7-1.1,6.6-1.1l0,4.4c-1.4,0-2.8,0.3-4.1,0.9c-1.4,0.6-2.6,1.4-3.7,2.4c-1.1,1.1-2,2.3-2.6,3.8
	c-0.7,1.5-1,3.1-1,4.9v4.4c0,1.7,0.3,3.3,1,4.8c0.7,1.5,1.6,2.7,2.6,3.8c1.1,1.1,2.3,1.9,3.7,2.5c1.4,0.6,2.8,0.9,4.2,0.9h10.8
	c1.4,0,2.8-0.3,4.2-0.9c1.4-0.6,2.6-1.4,3.7-2.5c1.1-1.1,2-2.3,2.6-3.8c0.7-1.5,1-3.1,1-4.8v-4.4c0-1.8-0.3-3.4-1-4.9
	c-0.6-1.5-1.5-2.7-2.6-3.8c-1.1-1.1-2.3-1.9-3.7-2.4c-1.4-0.6-2.8-0.9-4.3-0.9l-10.7,0l-0.2-4.5L260.6,17.9z"/>
</svg>
